<svg width="0" height="0" class="hidden">
    <symbol xmlns="http://www.w3.org/2000/svg" id="file" viewBox="0 0 24 24">
        <path clip-rule="evenodd" d="M19.6194 7.78055L19.6199 20.2045C19.6199 21.1919 18.8224 22 17.8294 22H6.17037C5.17733 22 4.37988 21.1919 4.37988 20.2045V3.79551C4.37988 2.80807 5.17733 2 6.17037 2H13.8647C13.8649 2 13.8645 2 13.8647 2C14.0278 2.00015 14.1886 2.06409 14.3081 2.18419L19.4381 7.3413C19.5565 7.46039 19.6194 7.61911 19.6194 7.78055ZM5.62906 3.79551C5.62906 3.48832 5.8756 3.24688 6.17037 3.24688H13.2403V6.6085C13.2403 7.59594 14.0377 8.40401 15.0308 8.40401H18.3707V20.2045C18.3707 20.5117 18.1242 20.7531 17.8294 20.7531H6.17037C5.8756 20.7531 5.62906 20.5117 5.62906 20.2045V3.79551ZM14.4895 6.6085V4.13619L17.4945 7.15712H15.0308C14.736 7.15712 14.4895 6.91569 14.4895 6.6085Z" fill-rule="evenodd" />
    </symbol>
    <symbol xmlns="http://www.w3.org/2000/svg" id="folder" viewBox="0 0 36 36">
        <path d="M13.414,5 L17.413,8.999 L33,9 L33,29 L3,29 L3,5 L13.414,5 Z M31,11 L5,10.999 L5,27 L31,27 L31,11 Z M12.5855729,7 L5,7 L5,8.999 L14.584,8.999 L12.5855729,7 Z"/>
    </symbol>

    <symbol xmlns="http://www.w3.org/2000/svg" id="attachment" viewBox="0 0 36 36">
        <path fill-rule="evenodd" d="M18,3 C14.14,3 11,6.14 11,10 L11,14 L11,18 L11,28 C11,30.757 13.243,33 16,33 C18.757,33 21,30.757 21,28 L21,25 L21,14 L21,12 C21,10.346 19.654,9 18,9 C16.346,9 15,10.346 15,12 L15,25 L17,25 L17,12 C17,11.449 17.449,11 18,11 C18.551,11 19,11.449 19,12 L19,14 L19,25 L19,28 C19,29.654 17.654,31 16,31 C14.346,31 13,29.654 13,28 L13,18 L13,14 L13,10 C13,7.243 15.243,5 18,5 C20.757,5 23,7.243 23,10 L23,25 L25,25 L25,10 C25,6.14 21.86,3 18,3"/>
    </symbol>
    <symbol xmlns="http://www.w3.org/2000/svg" id="arrow-down" viewBox="0 0 36 36">
        <polygon fill-rule="evenodd" points="29.293 17.293 19 27.586 19 5 17 5 17 27.586 6.707 17.293 5.293 18.707 18 31.414 30.707 18.707"/>
    </symbol>
    <symbol xmlns="http://www.w3.org/2000/svg" id="arrow-left" viewBox="0 0 36 36">
        <polygon fill-rule="evenodd" points="31 17 8.414 17 18.707 6.707 17.293 5.293 4.586 18 17.293 30.707 18.707 29.293 8.414 19 31 19"/>
    </symbol>
    <symbol xmlns="http://www.w3.org/2000/svg" id="arrow-right" viewBox="0 0 36 36">
        <polygon fill-rule="evenodd" points="18.707 5.293 17.293 6.707 27.586 17 5 17 5 19 27.586 19 17.293 29.293 18.707 30.707 31.414 18"/>
    </symbol>
    <symbol xmlns="http://www.w3.org/2000/svg" id="arrow-up" viewBox="0 0 36 36">
        <polygon fill-rule="evenodd" points="30.707 17.293 18 4.586 5.293 17.293 6.707 18.707 17 8.414 17 31 19 31 19 8.414 29.293 18.707"/>
    </symbol>
    <symbol xmlns="http://www.w3.org/2000/svg" id="check" viewBox="0 0 36 36">
        <g fill-rule="evenodd">
            <polygon points="29 8 13.561 23.439 7.121 17 5 19.12 13.561 27.681 31.12 10.12"/>
            <polygon points="29 8 13.561 23.439 7.121 17 5 19.12 13.561 27.681 31.12 10.12"/>
        </g>
    </symbol>
    <symbol xmlns="http://www.w3.org/2000/svg" id="check-circle" viewBox="0 0 36 36">
        <g fill-rule="evenodd">
            <path d="M18,5 C10.832,5 5,10.832 5,18 C5,25.168 10.832,31 18,31 C25.168,31 31,25.168 31,18 C31,10.832 25.168,5 18,5 M18,33 C9.729,33 3,26.271 3,18 C3,9.729 9.729,3 18,3 C26.271,3 33,9.729 33,18 C33,26.271 26.271,33 18,33"/>
            <polygon points="16 23.414 11.293 18.707 12.707 17.293 16 20.586 23.293 13.293 24.707 14.707"/>
        </g>
    </symbol>
    <symbol xmlns="http://www.w3.org/2000/svg" id="chevron-down" viewBox="0 0 36 36">
        <polygon fill-rule="evenodd" points="9.293 14.707 10.707 13.293 18 20.586 25.293 13.293 26.707 14.707 18 23.414"/>
    </symbol>
    <symbol xmlns="http://www.w3.org/2000/svg" id="chevron-left" viewBox="0 0 36 36">
        <polygon fill-rule="evenodd" points="21.293 9.293 22.707 10.707 15.414 18 22.707 25.293 21.293 26.707 12.586 18"/>
    </symbol>
    <symbol xmlns="http://www.w3.org/2000/svg" id="chevron-right" viewBox="0 0 36 36">
        <polygon fill-rule="evenodd" points="14.707 26.707 13.293 25.293 20.586 18 13.293 10.707 14.707 9.293 23.414 18"/>
    </symbol>
    <symbol xmlns="http://www.w3.org/2000/svg" id="chevron-up" viewBox="0 0 36 36">
        <polygon fill-rule="evenodd" points="26.707 21.293 25.293 22.707 18 15.414 10.707 22.707 9.293 21.293 18 12.586"/>
    </symbol>
    <symbol xmlns="http://www.w3.org/2000/svg" id="cross" viewBox="0 0 36 36">
        <polygon fill-rule="evenodd" points="27.899 9.515 26.485 8.101 18 16.586 9.514 8.101 8.1 9.515 16.586 18 8.1 26.486 9.514 27.9 18 19.414 26.485 27.9 27.899 26.486 19.414 18"/>
    </symbol>
    <symbol xmlns="http://www.w3.org/2000/svg" id="cross-circle" viewBox="0 0 36 36">
        <g fill-rule="evenodd">
            <polygon points="23.293 11.293 18 16.586 12.707 11.293 11.293 12.707 16.586 18 11.293 23.293 12.707 24.707 18 19.414 23.293 24.707 24.707 23.293 19.414 18 24.707 12.707"/>
            <path d="M18,31 C10.832,31 5,25.168 5,18 C5,10.832 10.832,5 18,5 C25.168,5 31,10.832 31,18 C31,25.168 25.168,31 18,31 M18,3 C9.729,3 3,9.729 3,18 C3,26.271 9.729,33 18,33 C26.271,33 33,26.271 33,18 C33,9.729 26.271,3 18,3"/>
        </g>
    </symbol>
    <symbol xmlns="http://www.w3.org/2000/svg" id="download" viewBox="0 0 36 36">
        <g fill-rule="evenodd">
            <path d="M28.9707,15.6641 C28.9907,15.4401 28.9997,15.2191 28.9997,15.0001 C28.9997,10.5891 25.4107,7.0001 20.9997,7.0001 C17.9547,7.0001 15.2217,8.7151 13.8727,11.3711 C13.2807,11.1261 12.6477,11.0001 11.9997,11.0001 C9.3517,11.0001 7.1777,13.0691 7.0107,15.6761 C4.5837,16.8221 2.9997,19.2771 2.9997,22.0001 C2.9997,25.8591 6.1407,29.0001 9.9997,29.0001 L11.9997,29.0001 L11.9997,27.0001 L9.9997,27.0001 C7.2427,27.0001 4.9997,24.7571 4.9997,22.0001 C4.9997,19.8761 6.3517,17.9791 8.3627,17.2801 L9.0977,17.0251 L8.9997,16.0001 C8.9997,14.3461 10.3457,13.0001 11.9997,13.0001 C12.6307,13.0001 13.2427,13.2051 13.7697,13.5931 L14.8757,14.4071 L15.3107,13.1031 C16.1287,10.6491 18.4147,9.0001 20.9997,9.0001 C24.3087,9.0001 26.9997,11.6911 26.9997,15.0001 C26.9997,15.3601 26.9637,15.7361 26.8917,16.1161 L26.7287,16.9781 L27.5617,17.2531 C29.6177,17.9301 30.9997,19.8371 30.9997,22.0001 C30.9997,24.7531 28.7637,26.9931 26.0127,27.0001 C25.6057,26.9681 24.9807,26.9801 23.9807,27.0001 L24.0197,29.0001 C24.4497,28.9911 24.9307,28.9841 25.2997,28.9821 L25.9997,29.0001 C29.8597,29.0001 32.9997,25.8591 32.9997,22.0001 C32.9997,19.2551 31.4107,16.8041 28.9707,15.6641"/>
            <polygon points="19 27.586 19 17 17 17 17 27.586 13.707 24.293 12.293 25.707 18 31.414 23.707 25.707 22.293 24.293"/>
        </g>
    </symbol>
    <symbol xmlns="http://www.w3.org/2000/svg" id="external" viewBox="0 0 36 36">
        <g fill-rule="evenodd">
            <polygon points="16 5 16 7 27.586 7 13.293 21.293 14.707 22.707 29 8.414 29 20 31 20 31 5"/>
            <polygon points="23 29 7 29 7 13 18 13 18 11 5 11 5 31 25 31 25 18 23 18"/>
        </g>
    </symbol>
    <symbol xmlns="http://www.w3.org/2000/svg" id="face-happy" viewBox="0 0 36 36">
        <g fill-rule="evenodd">
            <path d="M18,5 C10.832,5 5,10.832 5,18 C5,25.168 10.832,31 18,31 C25.168,31 31,25.168 31,18 C31,10.832 25.168,5 18,5 M18,33 C9.729,33 3,26.271 3,18 C3,9.729 9.729,3 18,3 C26.271,3 33,9.729 33,18 C33,26.271 26.271,33 18,33"/>
            <path d="M13.5 14C13.5 14.828 12.828 15.5 12 15.5 11.172 15.5 10.5 14.828 10.5 14 10.5 13.172 11.172 12.5 12 12.5 12.828 12.5 13.5 13.172 13.5 14M25.5 14C25.5 14.828 24.828 15.5 24 15.5 23.172 15.5 22.5 14.828 22.5 14 22.5 13.172 23.172 12.5 24 12.5 24.828 12.5 25.5 13.172 25.5 14M18 27.0049C16.833 27.0049 15.667 26.7749 14.556 26.3149 12.335 25.3949 10.605 23.6649 9.685 21.4439L11.533 20.6789C12.249 22.4059 13.594 23.7519 15.321 24.4669 18.89 25.9459 22.99 24.2449 24.467 20.6789L26.315 21.4439C25.395 23.6649 23.665 25.3949 21.444 26.3149 20.334 26.7749 19.167 27.0049 18 27.0049"/>
        </g>
    </symbol>
    <symbol xmlns="http://www.w3.org/2000/svg" id="face-neutral" viewBox="0 0 36 36">
        <g fill-rule="evenodd">
            <path d="M18,5 C10.832,5 5,10.832 5,18 C5,25.168 10.832,31 18,31 C25.168,31 31,25.168 31,18 C31,10.832 25.168,5 18,5 M18,33 C9.729,33 3,26.271 3,18 C3,9.729 9.729,3 18,3 C26.271,3 33,9.729 33,18 C33,26.271 26.271,33 18,33"/>
            <path d="M13.5 14C13.5 14.828 12.828 15.5 12 15.5 11.172 15.5 10.5 14.828 10.5 14 10.5 13.172 11.172 12.5 12 12.5 12.828 12.5 13.5 13.172 13.5 14M25.5 14C25.5 14.828 24.828 15.5 24 15.5 23.172 15.5 22.5 14.828 22.5 14 22.5 13.172 23.172 12.5 24 12.5 24.828 12.5 25.5 13.172 25.5 14"/>
            <polygon points="11 23 25 23 25 21 11 21"/>
        </g>
    </symbol>
    <symbol xmlns="http://www.w3.org/2000/svg" id="face-sad" viewBox="0 0 36 36">
        <g fill-rule="evenodd">
            <path d="M18,5 C10.832,5 5,10.832 5,18 C5,25.168 10.832,31 18,31 C25.168,31 31,25.168 31,18 C31,10.832 25.168,5 18,5 M18,33 C9.729,33 3,26.271 3,18 C3,9.729 9.729,3 18,3 C26.271,3 33,9.729 33,18 C33,26.271 26.271,33 18,33"/>
            <path d="M13.5 14C13.5 14.828 12.828 15.5 12 15.5 11.172 15.5 10.5 14.828 10.5 14 10.5 13.172 11.172 12.5 12 12.5 12.828 12.5 13.5 13.172 13.5 14M25.5 14C25.5 14.828 24.828 15.5 24 15.5 23.172 15.5 22.5 14.828 22.5 14 22.5 13.172 23.172 12.5 24 12.5 24.828 12.5 25.5 13.172 25.5 14M24.4673 25.3213C23.7513 23.5933 22.4063 22.2483 20.6783 21.5323 17.1123 20.0543 13.0093 21.7553 11.5323 25.3213L9.6853 24.5553C10.6053 22.3353 12.3353 20.6053 14.5553 19.6853 16.7763 18.7653 19.2223 18.7653 21.4443 19.6853 23.6653 20.6053 25.3953 22.3353 26.3153 24.5553L24.4673 25.3213z"/>
        </g>
    </symbol>
    <symbol xmlns="http://www.w3.org/2000/svg" id="fullscreen" viewBox="0 0 36 36">
        <polygon fill-rule="evenodd" points="31 13 31 5 23 5 23 7 27.586 7 18 16.586 8.414 7 13 7 13 5 5 5 5 13 7 13 7 8.414 16.586 18 7 27.586 7 23 5 23 5 31 13 31 13 29 8.414 29 18 19.414 27.586 29 23 29 23 31 31 31 31 23 29 23 29 27.586 19.414 18 29 8.414 29 13"/>
    </symbol>
    <symbol xmlns="http://www.w3.org/2000/svg" id="fullscreen-exit" viewBox="0 0 36 36">
        <g fill-rule="evenodd">
            <polygon points="29 23 29 21 21 21 21 29 23 29 23 24.414 29.293 30.707 30.707 29.293 24.414 23"/>
            <polygon points="13 11.586 6.707 5.293 5.293 6.707 11.586 13 7 13 7 15 15 15 15 7 13 7"/>
            <polygon points="29 13 24.414 13 30.707 6.707 29.293 5.293 23 11.586 23 7 21 7 21 15 29 15"/>
            <polygon points="7 23 11.586 23 5.293 29.293 6.707 30.707 13 24.414 13 29 15 29 15 21 7 21"/>
        </g>
    </symbol>
    <symbol xmlns="http://www.w3.org/2000/svg" id="globe" viewBox="0 0 36 36">
        <path fill-rule="evenodd" d="M22.7875,30.075 C24.0565,28.319 25.0255,25.873 25.5515,23 L29.9975,23 C28.6495,26.222 26.0375,28.782 22.7875,30.075 L22.7875,30.075 Z M6.0035,23 L10.4485,23 C10.9745,25.873 11.9435,28.319 13.2125,30.075 C9.9625,28.782 7.3505,26.222 6.0035,23 L6.0035,23 Z M13.2125,5.925 C11.9435,7.681 10.9745,10.127 10.4485,13 L6.0025,13 C7.3505,9.778 9.9625,7.218 13.2125,5.925 L13.2125,5.925 Z M19.0005,21 L19.0005,15 L23.8345,15 C23.9395,15.951 24.0005,16.95 24.0005,18 C24.0005,19.05 23.9395,20.049 23.8345,21 L19.0005,21 Z M19.0005,30.79 L19.0005,23 L23.5275,23 C22.6995,27.191 20.8895,30.032 19.0005,30.79 L19.0005,30.79 Z M17.0005,23 L17.0005,30.79 C15.1105,30.032 13.3005,27.191 12.4725,23 L17.0005,23 Z M17.0005,5.21 L17.0005,13 L12.4725,13 C13.3005,8.81 15.1105,5.968 17.0005,5.21 L17.0005,5.21 Z M23.5275,13 L19.0005,13 L19.0005,5.21 C20.8895,5.968 22.6995,8.81 23.5275,13 L23.5275,13 Z M12.0005,18 C12.0005,16.95 12.0605,15.951 12.1655,15 L17.0005,15 L17.0005,21 L12.1655,21 C12.0605,20.049 12.0005,19.05 12.0005,18 L12.0005,18 Z M5.0005,18 C5.0005,16.966 5.1345,15.965 5.3635,15 L10.1555,15 C10.0545,15.967 10.0005,16.969 10.0005,18 C10.0005,19.031 10.0545,20.033 10.1555,21 L5.3635,21 C5.1345,20.035 5.0005,19.034 5.0005,18 L5.0005,18 Z M31.0005,18 C31.0005,19.034 30.8655,20.035 30.6365,21 L25.8445,21 C25.9455,20.033 26.0005,19.031 26.0005,18 C26.0005,16.969 25.9455,15.967 25.8445,15 L30.6365,15 C30.8655,15.965 31.0005,16.966 31.0005,18 L31.0005,18 Z M29.9975,13 L25.5515,13 C25.0255,10.127 24.0565,7.681 22.7875,5.925 C26.0375,7.218 28.6495,9.778 29.9975,13 L29.9975,13 Z M18.0005,3 C9.7285,3 3.0005,9.729 3.0005,18 C3.0005,26.272 9.7285,33 18.0005,33 C26.2715,33 33.0005,26.272 33.0005,18 C33.0005,9.729 26.2715,3 18.0005,3 L18.0005,3 Z"/>
    </symbol>
    <symbol xmlns="http://www.w3.org/2000/svg" id="help" viewBox="0 0 36 36">
        <g fill-rule="evenodd">
            <path d="M19.5,24 C19.5,24.828 18.828,25.5 18,25.5 C17.172,25.5 16.5,24.828 16.5,24 C16.5,23.172 17.172,22.5 18,22.5 C18.828,22.5 19.5,23.172 19.5,24"/>
            <path d="M18,5 C10.832,5 5,10.832 5,18 C5,25.168 10.832,31 18,31 C25.168,31 31,25.168 31,18 C31,10.832 25.168,5 18,5 M18,33 C9.729,33 3,26.271 3,18 C3,9.729 9.729,3 18,3 C26.271,3 33,9.729 33,18 C33,26.271 26.271,33 18,33"/>
            <path d="M19,20 L17,20 C17,17.456 19.437,16.166 19.54,16.112 C19.558,16.104 21,15.334 21,14 C21,12.346 19.654,11 18,11 C16.346,11 15,12.346 15,14 L13,14 C13,11.243 15.243,9 18,9 C20.757,9 23,11.243 23,14 C23,16.572 20.556,17.84 20.452,17.893 C20.45,17.894 19,18.682 19,20"/>
        </g>
    </symbol>
    <symbol xmlns="http://www.w3.org/2000/svg" id="home" viewBox="0 0 36 36">
        <g fill-rule="evenodd">
            <polygon points="18 4.826 4.476 13.148 5.524 14.851 18 7.174 30.476 14.851 31.524 13.148"/>
            <polygon points="25 27 21 27 21 19 15 19 15 27 11 27 11 15 9 15 9 29 17 29 17 21 19 21 19 29 27 29 27 15 25 15"/>
        </g>
    </symbol>
    <symbol xmlns="http://www.w3.org/2000/svg" id="image" viewBox="0 0 36 36">
        <g fill-rule="evenodd">
            <path d="M7,29 L29,29 L29,25 L7,25 L7,29 Z M7,23 L29,23 L29,7 L7,7 L7,23 Z M5,31 L31,31 L31,5 L5,5 L5,31 Z"/>
            <polygon points="15.012 13.037 18.781 19.633 21.917 16.497 25.219 20.625 26.781 19.375 22.083 13.503 19.219 16.367 14.988 8.963 9.126 19.515 10.874 20.485"/>
        </g>
    </symbol>
    <symbol xmlns="http://www.w3.org/2000/svg" id="info" viewBox="0 0 36 36">
        <g fill-rule="evenodd">
            <path d="M18,13.5 C18.828,13.5 19.5,12.828 19.5,12 C19.5,11.172 18.828,10.5 18,10.5 C17.172,10.5 16.5,11.172 16.5,12 C16.5,12.828 17.172,13.5 18,13.5"/>
            <path d="M18,31 C10.832,31 5,25.168 5,18 C5,10.832 10.832,5 18,5 C25.168,5 31,10.832 31,18 C31,25.168 25.168,31 18,31 M18,3 C9.729,3 3,9.729 3,18 C3,26.271 9.729,33 18,33 C26.271,33 33,26.271 33,18 C33,9.729 26.271,3 18,3"/>
            <polygon points="19 15 15 15 15 17 17 17 17 25 15 25 15 27 21 27 21 25 19 25"/>
        </g>
    </symbol>
    <symbol xmlns="http://www.w3.org/2000/svg" id="menu-left" viewBox="0 0 36 36">
        <g fill-rule="evenodd">
            <polygon points="3 7 33 7 33 5 3 5"/>
            <polygon points="3 15 27 15 27 13 3 13"/>
            <polygon points="3 23 33 23 33 21 3 21"/>
            <polygon points="3 31 21 31 21 29 3 29"/>
        </g>
    </symbol>
    <symbol xmlns="http://www.w3.org/2000/svg" id="menu-right" viewBox="0 0 36 36">
        <g fill-rule="evenodd">
            <polygon points="3 7 33 7 33 5 3 5"/>
            <polygon points="9 15 32.999 15 32.999 13 9 13"/>
            <polygon points="3 23 33 23 33 21 3 21"/>
            <polygon points="15 31 33 31 33 29 15 29"/>
        </g>
    </symbol>
    <symbol xmlns="http://www.w3.org/2000/svg" id="minus-circle" viewBox="0 0 36 36">
        <g fill-rule="evenodd">
            <polygon points="9 19 27 19 27 17 9 17"/>
            <path d="M18,5 C10.832,5 5,10.832 5,18 C5,25.168 10.832,31 18,31 C25.168,31 31,25.168 31,18 C31,10.832 25.168,5 18,5 M18,33 C9.729,33 3,26.271 3,18 C3,9.729 9.729,3 18,3 C26.271,3 33,9.729 33,18 C33,26.271 26.271,33 18,33"/>
        </g>
    </symbol>
    <symbol xmlns="http://www.w3.org/2000/svg" id="more-horizontal" viewBox="0 0 36 36">
        <g fill-rule="evenodd">
            <path d="M8 16C6.897 16 6 16.897 6 18 6 19.103 6.897 20 8 20 9.103 20 10 19.103 10 18 10 16.897 9.103 16 8 16M8 22C5.794 22 4 20.206 4 18 4 15.794 5.794 14 8 14 10.206 14 12 15.794 12 18 12 20.206 10.206 22 8 22M18 16C16.897 16 16 16.897 16 18 16 19.103 16.897 20 18 20 19.103 20 20 19.103 20 18 20 16.897 19.103 16 18 16M18 22C15.794 22 14 20.206 14 18 14 15.794 15.794 14 18 14 20.206 14 22 15.794 22 18 22 20.206 20.206 22 18 22M28 16C26.897 16 26 16.897 26 18 26 19.103 26.897 20 28 20 29.103 20 30 19.103 30 18 30 16.897 29.103 16 28 16M28 22C25.794 22 24 20.206 24 18 24 15.794 25.794 14 28 14 30.206 14 32 15.794 32 18 32 20.206 30.206 22 28 22"/>
        </g>
    </symbol>
    <symbol xmlns="http://www.w3.org/2000/svg" id="pencil" viewBox="0 0 36 36">
        <path fill-rule="evenodd" d="M27.2266,11.8125 L24.3986,8.9845 L26.3836,6.9985 L29.2116,9.8275 L27.2266,11.8125 Z M21.3986,11.9845 L22.9846,10.3985 L25.8126,13.2265 L24.2266,14.8125 L21.3986,11.9845 Z M10.3986,22.9845 L19.9846,13.3985 L22.8126,16.2265 L13.2266,25.8125 L10.3986,22.9845 Z M8.0646,27.0645 L8.9766,24.4065 L8.9846,24.3985 L11.8086,27.2225 L9.0466,28.0475 L8.0646,27.0645 Z M30.6256,8.4135 L27.7976,5.5835 C27.0416,4.8285 25.7246,4.8285 24.9696,5.5845 L7.2346,23.3195 L4.4236,31.5145 L12.8766,28.9915 L30.6256,11.2415 C31.4056,10.4615 31.4056,9.1925 30.6256,8.4135 L30.6256,8.4135 Z"/>
    </symbol>
    <symbol xmlns="http://www.w3.org/2000/svg" id="play" viewBox="0 0 36 36">
        <path fill-rule="evenodd" d="M11,10.71 L11,25.29 L23.96,18 L11,10.71 Z M9,28.71 L9,7.29 L28.04,18 L9,28.71 Z"/>
    </symbol>
    <symbol xmlns="http://www.w3.org/2000/svg" id="plus" viewBox="0 0 36 36">
        <polygon fill-rule="evenodd" points="31 17 19 17 19 5 17 5 17 17 5 17 5 19 17 19 17 31 19 31 19 19 31 19"/>
    </symbol>
    <symbol xmlns="http://www.w3.org/2000/svg" id="plus-circle" viewBox="0 0 36 36">
        <g fill-rule="evenodd">
            <polygon points="19 9 17 9 17 17 9 17 9 19 17 19 17 27 19 27 19 19 27 19 27 17 19 17"/>
            <path d="M18,31 C10.832,31 5,25.168 5,18 C5,10.832 10.832,5 18,5 C25.168,5 31,10.832 31,18 C31,25.168 25.168,31 18,31 M18,3 C9.729,3 3,9.729 3,18 C3,26.271 9.729,33 18,33 C26.271,33 33,26.271 33,18 C33,9.729 26.271,3 18,3"/>
        </g>
    </symbol>
    <symbol xmlns="http://www.w3.org/2000/svg" id="refresh" viewBox="0 0 36 36">
        <path fill-rule="evenodd" d="M20,15 L29,15 L29,6 L27,6 L27,11.686 C24.105,7.561 18.633,5.83 13.79,7.837 C8.187,10.158 5.516,16.605 7.837,22.209 C9.59,26.441 13.696,29 18.015,29 C19.415,29 20.838,28.731 22.21,28.163 C24.925,27.038 27.039,24.923 28.162,22.209 L26.314,21.444 C25.396,23.665 23.666,25.395 21.444,26.315 C16.862,28.215 11.584,26.028 9.685,21.444 C8.765,19.223 8.765,16.776 9.685,14.556 C10.604,12.334 12.335,10.605 14.556,9.685 C18.584,8.017 23.145,9.504 25.481,13 L20,13 L20,15 Z"/>
    </symbol>
    <symbol xmlns="http://www.w3.org/2000/svg" id="search" viewBox="0 0 36 36">
        <path fill-rule="evenodd" d="M7,16 C7,11.038 11.037,7 16,7 C20.963,7 25,11.038 25,16 C25,20.962 20.963,25 16,25 C11.037,25 7,20.962 7,16 L7,16 Z M32.707,31.293 L24.448,23.034 C26.039,21.125 27,18.673 27,16 C27,9.935 22.065,5 16,5 C9.935,5 5,9.935 5,16 C5,22.065 9.935,27 16,27 C18.673,27 21.125,26.039 23.034,24.448 L31.293,32.707 L32.707,31.293 Z"/>
    </symbol>
    <symbol xmlns="http://www.w3.org/2000/svg" id="shield" viewBox="0 0 36 36">
        <g fill="none" fill-rule="evenodd">
            <path fill="#000" fill-rule="nonzero" d="M9,7 L9,19 C9,22.0882936 10.6396023,24.9790035 13.4704001,27.5888035 C14.5157234,28.5525194 15.6524847,29.4093151 16.8018493,30.146736 C17.2691065,30.4465236 17.6752545,30.6875246 17.9999067,30.8684028 C18.3261057,30.6867175 18.7316757,30.4460217 19.1981507,30.146736 C20.3475153,29.4093151 21.4842766,28.5525194 22.5295999,27.5888035 C25.3603977,24.9790035 27,22.0882936 27,19 L27,7 L9,7 Z M7,5 L29,5 L29,19 C29,27.514 18.878,32.679 18.448,32.895 L18,33.118 L17.552,32.895 C17.122,32.679 7,27.514 7,19 L7,5 Z"/>
            <polygon fill="#000" points="16 22.414 11.293 17.707 12.707 16.293 16 19.586 23.293 12.293 24.707 13.707"/>
            <rect width="36" height="36"/>
        </g>
    </symbol>
    <symbol xmlns="http://www.w3.org/2000/svg" id="trash" viewBox="0 0 36 36">
        <g fill-rule="evenodd">
            <path d="M27,30 C27,30.552 26.551,31 26,31 L12,31 C11.449,31 11,30.552 11,30 L11,9 L27,9 L27,30 Z M19,5 C20.103,5 21,5.897 21,7 L17,7 C17,5.897 17.897,5 19,5 L19,5 Z M31,7 L23,7 C23,4.794 21.206,3 19,3 C16.794,3 15,4.794 15,7 L7,7 L7,9 L9,9 L9,30 C9,31.654 10.346,33 12,33 L26,33 C27.654,33 29,31.654 29,30 L29,9 L31,9 L31,7 Z"/>
            <polygon points="15 28 17 28 17 12 15 12"/>
            <polygon points="21 28 23 28 23 12 21 12"/>
        </g>
    </symbol>
    <symbol xmlns="http://www.w3.org/2000/svg" id="tune" viewBox="0 0 36 36">
        <g fill-rule="evenodd">
            <path d="M10 20C8.897 20 8 19.103 8 18 8 16.897 8.897 16 10 16 11.103 16 12 16.897 12 18 12 19.103 11.103 20 10 20M11 14.142L11 5 9 5 9 14.142C7.28 14.589 6 16.141 6 18 6 19.859 7.28 21.411 9 21.858L9 31 11 31 11 21.858C12.72 21.411 14 19.859 14 18 14 16.141 12.72 14.589 11 14.142M18 14C16.897 14 16 13.103 16 12 16 10.897 16.897 10 18 10 19.103 10 20 10.897 20 12 20 13.103 19.103 14 18 14M22 12C22 10.141 20.72 8.589 19 8.142L19 5 17 5 17 8.142C15.28 8.589 14 10.141 14 12 14 13.859 15.28 15.411 17 15.858L17 31 19 31 19 15.858C20.72 15.411 22 13.859 22 12M26 26C24.897 26 24 25.103 24 24 24 22.897 24.897 22 26 22 27.103 22 28 22.897 28 24 28 25.103 27.103 26 26 26M30 24C30 22.141 28.72 20.589 27 20.142L27 5 25 5 25 20.142C23.28 20.589 22 22.141 22 24 22 25.859 23.28 27.411 25 27.858L25 31 27 31 27 27.858C28.72 27.411 30 25.859 30 24"/>
        </g>
    </symbol>
    <symbol xmlns="http://www.w3.org/2000/svg" id="warning" viewBox="0 0 36 36">
        <g fill-rule="evenodd">
            <path d="M6.7139,29 L29.2859,29 L17.9999,9.032 L6.7139,29 Z M32.7139,31 L3.2859,31 L17.9999,4.968 L32.7139,31 Z"/>
            <path d="M19.5,26 C19.5,26.828 18.828,27.5 18,27.5 C17.172,27.5 16.5,26.828 16.5,26 C16.5,25.172 17.172,24.5 18,24.5 C18.828,24.5 19.5,25.172 19.5,26 L19.5,26 Z"/>
            <polygon points="17 23 19 23 19 14 17 14"/>
        </g>
    </symbol>
    <symbol xmlns="http://www.w3.org/2000/svg" id="volume" viewBox="0 0 36 36">
      <g fill-rule="evenodd"><path d="M19 26.7959L13 21.5459 13.01 14.4459 19 9.2039 19 26.7959zM7 20.9999L11 20.9999 11 14.9999 7 14.9999 7 20.9999zM7 12.9999C5.897 12.9999 5 13.8979 5 14.9999L5 20.9999C5 22.1029 5.897 22.9999 7 22.9999L11.624 22.9999 21 31.2039 21 4.7959 11.624 12.9999 7 12.9999zM27 18C27 15.794 25.206 14 23 14L23 16C24.103 16 25 16.897 25 18 25 19.103 24.103 20 23 20L23 22C25.206 22 27 20.206 27 18"></path><path d="M23,10 L23,12 C26.309,12 29,14.691 29,18 C29,21.309 26.309,24 23,24 L23,26 C27.411,26 31,22.411 31,18 C31,13.589 27.411,10 23,10"></path>
      </g>
    </symbol>
    <symbol xmlns="http://www.w3.org/2000/svg" id="volume-off" viewBox="0 0 36 36">
      <g fill-rule="evenodd"><path d="M19 26.7959L13 21.5459 13.01 14.4459 19 9.2039 19 26.7959zM7 20.9999L11 20.9999 11 14.9999 7 14.9999 7 20.9999zM7 12.9999C5.897 12.9999 5 13.8979 5 14.9999L5 20.9999C5 22.1029 5.897 22.9999 7 22.9999L11.624 22.9999 21 31.2039 21 4.7959 11.624 12.9999 7 12.9999zM32.707 14.707L31.293 13.293 28 16.586 24.707 13.293 23.293 14.707 26.586 18 23.293 21.293 24.707 22.707 28 19.414 31.293 22.707 32.707 21.293 29.414 18z"></path></g>
    </symbol>
    <symbol xmlns="http://www.w3.org/2000/svg" id="microphone" viewBox="0 0 36 36">
      <path fill-rule="evenodd" clip-rule="evenodd" d="M15 8C15 6.346 16.346 5 18 5C19.654 5 21 6.346 21 8V20C21 21.654 19.654 23 18 23C16.346 23 15 21.654 15 20V8ZM18 25C20.757 25 23 22.757 23 20V8C23 5.243 20.757 3 18 3C15.243 3 13 5.243 13 8V20C13 22.757 15.243 25 18 25Z" />
      <path fill-rule="evenodd" clip-rule="evenodd" d="M25 17V20C25 23.859 21.86 27 18 27C14.14 27 11 23.859 11 20V17H9V20C9 24.625 12.507 28.442 17 28.941V31H13V33H17H19H23V31H19V28.941C23.493 28.442 27 24.625 27 20V17H25Z" />
    </symbol>
</svg>